<svg xmlns="http://www.w3.org/2000/svg" width="189" height="186" fill="none"><g filter="url(#a)"><circle cx="95.902" cy="86.749" r="69.099" fill="url(#b)"/><circle cx="95.902" cy="86.749" r="68.733" stroke="url(#c)" stroke-width=".732"/></g><g filter="url(#d)"><circle cx="41.041" cy="144.959" r="41.041" fill="url(#e)"/><circle cx="41.041" cy="144.959" r="40.675" stroke="url(#f)" stroke-width=".732"/></g><path fill="#fff" d="M79.84 96.41a7.395 7.395 0 0 1-2.916-.571 6.907 6.907 0 0 1-2.33-1.642 6.67 6.67 0 0 1-1.422-2.535l2.506-.718c.323.977.86 1.72 1.612 2.228a4.343 4.343 0 0 0 2.536.747c.86-.02 1.602-.215 2.227-.586a3.867 3.867 0 0 0 1.466-1.554c.352-.654.527-1.411.527-2.271 0-1.31-.39-2.37-1.172-3.18-.782-.821-1.807-1.231-3.078-1.231a4.85 4.85 0 0 0-2.184.557l-1.26-2.067 7.826-7.078.337.88H74.008v-2.492H86.45v2.506l-6.668 6.39-.03-.924c1.398-.098 2.619.132 3.664.689a5.908 5.908 0 0 1 2.433 2.389c.586 1.035.88 2.222.88 3.56 0 1.35-.304 2.541-.91 3.577a6.649 6.649 0 0 1-2.461 2.447c-1.036.586-2.208.88-3.518.88Zm9.406 2.873.16-1.217c.411.03.719-.049.924-.234.205-.186.337-.44.396-.762.058-.323.068-.68.029-1.07h-1.51v-3.312h2.873v3.752c0 1.026-.254 1.797-.762 2.315-.498.518-1.202.694-2.11.528Zm6.864-3.298.015-2.344 9.364-8.427c.782-.704 1.304-1.368 1.568-1.993a4.875 4.875 0 0 0 .411-1.95c0-.81-.186-1.543-.557-2.198a4.165 4.165 0 0 0-1.524-1.553c-.635-.381-1.358-.572-2.169-.572-.841 0-1.588.2-2.243.601a4.348 4.348 0 0 0-1.553 1.568 4.154 4.154 0 0 0-.542 2.14h-2.667c0-1.329.307-2.501.923-3.517a6.51 6.51 0 0 1 2.506-2.404c1.065-.586 2.271-.879 3.62-.879 1.309 0 2.481.303 3.517.909a6.542 6.542 0 0 1 2.447 2.447c.606 1.026.909 2.189.909 3.488 0 .918-.117 1.715-.352 2.389a5.783 5.783 0 0 1-1.055 1.876 18.431 18.431 0 0 1-1.803 1.817l-7.781 6.99-.338-.879h11.329v2.491H96.11Zm14.772.015 6.053-8.002-5.921-7.825h3.107l4.338 5.803 4.294-5.803h3.107l-5.921 7.825L126.006 96h-3.121l-4.426-5.98-4.455 5.98h-3.122Z"/><defs><linearGradient id="b" x1="165.001" x2="26.803" y1="86.749" y2="86.749" gradientUnits="userSpaceOnUse"><stop stop-color="#FFB168"/><stop offset="1" stop-color="#E36D00"/></linearGradient><linearGradient id="c" x1="26.803" x2="174.766" y1="155.848" y2="143.207" gradientUnits="userSpaceOnUse"><stop stop-color="#FFC48D"/><stop offset="1" stop-color="#FFA149"/></linearGradient><linearGradient id="e" x1="0" x2="107.44" y1="144.959" y2="136.867" gradientUnits="userSpaceOnUse"><stop offset=".111" stop-color="#7F7A72"/><stop offset="1" stop-color="#292622"/></linearGradient><linearGradient id="f" x1="0" x2="88.665" y1="120.144" y2="134.816" gradientUnits="userSpaceOnUse"><stop stop-color="silver"/><stop offset="1" stop-color="#1F1B18"/></linearGradient><filter id="a" width="185.02" height="185.021" x="3.391" y=".091" color-interpolation-filters="sRGB" filterUnits="userSpaceOnUse"><feFlood flood-opacity="0" result="BackgroundImageFix"/><feColorMatrix in="SourceAlpha" result="hardAlpha" values="0 0 0 0 0 0 0 0 0 0 0 0 0 0 0 0 0 0 127 0"/><feOffset dy="5.853"/><feGaussianBlur stdDeviation="11.706"/><feComposite in2="hardAlpha" operator="out"/><feColorMatrix values="0 0 0 0 0.894118 0 0 0 0 0.435294 0 0 0 0 0.0117647 0 0 0 0.37 0"/><feBlend in2="BackgroundImageFix" result="effect1_dropShadow_2288_5270"/><feBlend in="SourceGraphic" in2="effect1_dropShadow_2288_5270" result="shape"/></filter><filter id="d" width="137.684" height="137.684" x="-27.801" y="76.118" color-interpolation-filters="sRGB" filterUnits="userSpaceOnUse"><feFlood flood-opacity="0" result="BackgroundImageFix"/><feGaussianBlur in="BackgroundImageFix" stdDeviation="13.901"/><feComposite in2="SourceAlpha" operator="in" result="effect1_backgroundBlur_2288_5270"/><feBlend in="SourceGraphic" in2="effect1_backgroundBlur_2288_5270" result="shape"/></filter></defs></svg>